<svg width="39" height="39" viewBox="0 0 39 39" fill="none" xmlns="http://www.w3.org/2000/svg">
<path fill-rule="evenodd" clip-rule="evenodd" d="M19.1216 1.10227C15.1996 1.25927 11.7326 4.05327 10.7486 7.85127C10.4816 8.88327 10.3916 10.4413 10.5426 11.4393C10.8516 13.4753 11.7416 15.2263 13.1936 16.6513C16.2296 19.6343 20.9976 20.0793 24.5496 17.7113C28.3776 15.1603 29.6946 10.1323 27.6046 6.04427C26.8125 4.4945 25.592 3.20485 24.0881 2.32874C22.5843 1.45263 20.8604 1.02692 19.1216 1.10227ZM21.0226 4.11027C22.1456 4.40627 23.1366 4.96927 23.9056 5.74927C24.4986 6.35127 24.7806 6.74427 25.1236 7.44927C25.8116 8.83089 25.9485 10.4224 25.5066 11.9013C25.2171 12.9095 24.6762 13.8276 23.9348 14.5696C23.1933 15.3116 22.2756 15.8531 21.2676 16.1433C19.7877 16.5867 18.1944 16.4501 16.8116 15.7613C15.1396 14.9463 13.9506 13.4853 13.4736 11.6603C13.2926 10.9673 13.2536 9.78827 13.3886 9.07227C13.8676 6.53027 15.7396 4.60527 18.2716 4.05427C18.9886 3.89727 20.3166 3.92527 21.0226 4.11027ZM17.6816 22.9403C12.4856 23.2383 8.28459 24.8653 5.33559 27.7223C4.24659 28.7773 3.22159 30.1463 2.61859 31.3513C1.85759 32.8723 1.91959 34.4153 2.79459 35.7513C3.49759 36.8233 4.61159 37.5873 5.98159 37.9353C6.41759 38.0453 6.84759 38.0493 19.5416 38.0493H32.6516L33.1616 37.9103C35.0256 37.4013 36.4126 36.1083 36.8256 34.4943C36.9666 33.9403 36.9786 32.9953 36.8516 32.4543C36.5036 30.9783 34.8766 28.6663 33.1366 27.1773C32.4196 26.5633 31.0826 25.6453 30.2816 25.2173C27.9456 23.9703 24.9676 23.1923 21.6416 22.9613C20.8506 22.9063 18.4956 22.8933 17.6816 22.9403ZM21.1396 25.7803C24.3456 25.9633 26.9586 26.6393 29.1586 27.8553C31.1196 28.9393 32.6866 30.4683 33.7366 32.3233C34.0256 32.8323 34.0806 32.9793 34.1066 33.3083C34.1336 33.6433 34.1166 33.7393 33.9776 34.0223C33.7926 34.4003 33.4726 34.7113 33.0446 34.9273C32.3506 35.2793 33.1736 35.2593 19.5436 35.2583C5.86659 35.2573 6.63059 35.2763 5.96659 34.9153C5.60859 34.7203 5.23259 34.3553 5.07859 34.0533C4.80359 33.5153 4.88059 33.0403 5.37659 32.2103C7.28759 29.0143 10.4506 26.9793 14.8016 26.1463C16.7066 25.7813 18.9196 25.6533 21.1396 25.7803Z" fill="#2388FF"/>
</svg>
