<svg width="29" height="32" viewBox="0 0 29 32" fill="none" xmlns="http://www.w3.org/2000/svg">
<g filter="url(#filter0_ddii_17_18437)">
<path fill-rule="evenodd" clip-rule="evenodd" d="M17.0483 15.6452C16.5449 16.1485 15.9035 16.4913 15.2052 16.6301C14.507 16.7689 13.7833 16.6977 13.1256 16.4252C12.4679 16.1528 11.9057 15.6915 11.5101 15.0997C11.1145 14.5078 10.9033 13.8119 10.9031 13.1V8.6C10.9031 8.12724 10.9962 7.65911 11.1772 7.22234C11.3581 6.78557 11.6233 6.38871 11.9575 6.05442C12.2918 5.72012 12.6887 5.45495 13.1255 5.27403C13.5622 5.09312 14.0304 5 14.5031 5C14.9759 5 15.444 5.09312 15.8808 5.27403C16.3176 5.45495 16.7144 5.72012 17.0487 6.05442C17.383 6.38871 17.6482 6.78557 17.8291 7.22234C18.01 7.65911 18.1031 8.12724 18.1031 8.6V13.1C18.1029 14.0547 17.7235 14.9702 17.0483 15.6452ZM20.0075 11.8544C20.1649 11.697 20.3653 11.5898 20.5836 11.5464C20.8018 11.503 21.0281 11.5253 21.2337 11.6104C21.4393 11.6956 21.615 11.8398 21.7386 12.0249C21.8622 12.2099 21.9282 12.4275 21.9281 12.65V13.55C21.9258 15.3238 21.2897 17.0383 20.1345 18.3843C18.9792 19.7303 17.381 20.6191 15.6281 20.8904V21.875C15.6281 22.1734 15.5096 22.4595 15.2986 22.6705C15.0876 22.8815 14.8015 23 14.5031 23C14.2048 23 13.9186 22.8815 13.7076 22.6705C13.4967 22.4595 13.3781 22.1734 13.3781 21.875V20.8904C11.6252 20.6191 10.027 19.7303 8.8718 18.3843C7.71658 17.0383 7.08044 15.3238 7.07812 13.55V12.65C7.07812 12.3516 7.19665 12.0655 7.40763 11.8545C7.61861 11.6435 7.90476 11.525 8.20313 11.525C8.50149 11.525 8.78764 11.6435 8.99862 11.8545C9.2096 12.0655 9.32813 12.3516 9.32813 12.65V13.55C9.32813 14.2296 9.46198 14.9025 9.72205 15.5304C9.98212 16.1582 10.3633 16.7287 10.8438 17.2093C11.3244 17.6898 11.8949 18.071 12.5227 18.3311C13.1506 18.5911 13.8235 18.725 14.5031 18.725C15.1827 18.725 15.8557 18.5911 16.4835 18.3311C17.1114 18.071 17.6819 17.6898 18.1624 17.2093C18.6429 16.7287 19.0241 16.1582 19.2842 15.5304C19.5443 14.9025 19.6781 14.2296 19.6781 13.55V12.65C19.6781 12.3512 19.7969 12.065 20.0075 11.8544Z" fill="url(#paint0_linear_17_18437)"/>
<path d="M20.2064 12.0533L20.2065 12.0533C20.3245 11.9353 20.4748 11.8549 20.6385 11.8223C20.8022 11.7898 20.9718 11.8065 21.126 11.8703C21.2802 11.9342 21.412 12.0424 21.5047 12.1811C21.5974 12.3199 21.6468 12.4831 21.6468 12.6499V12.65V13.5496C21.6446 15.2563 21.0325 16.906 19.921 18.2011C18.8095 19.4962 17.2717 20.3514 15.5851 20.6124L15.3468 20.6493V20.8904V21.875C15.3468 22.0988 15.2579 22.3134 15.0997 22.4716C14.9415 22.6298 14.7269 22.7187 14.5031 22.7187C14.2794 22.7187 14.0648 22.6298 13.9066 22.4716C13.7483 22.3134 13.6594 22.0988 13.6594 21.875V20.8904V20.6493L13.4212 20.6124C11.7346 20.3514 10.1968 19.4962 9.08527 18.2011C7.97379 16.906 7.36171 15.2564 7.35944 13.5498V12.65C7.35944 12.4262 7.44833 12.2116 7.60655 12.0534C7.76477 11.8952 7.97937 11.8063 8.20313 11.8063C8.42688 11.8063 8.64148 11.8952 8.7997 12.0534C8.95792 12.2116 9.04681 12.4262 9.04681 12.65V13.55C9.04681 14.2665 9.18794 14.9761 9.46214 15.638C9.73635 16.3 10.1383 16.9015 10.6449 17.4082C11.1516 17.9149 11.7531 18.3168 12.4151 18.591C13.0771 18.8652 13.7866 19.0063 14.5031 19.0063C15.2197 19.0063 15.9292 18.8652 16.5912 18.591C17.2532 18.3168 17.8547 17.9149 18.3613 17.4082C18.868 16.9015 19.2699 16.3 19.5441 15.638C19.8183 14.9761 19.9594 14.2665 19.9594 13.55V12.65C19.9594 12.4258 20.0486 12.2112 20.2064 12.0533ZM16.8494 15.4462C16.3853 15.9102 15.794 16.2262 15.1504 16.3542C14.5067 16.4822 13.8395 16.4165 13.2332 16.1653C12.6269 15.9142 12.1086 15.489 11.744 14.9433C11.3793 14.3977 11.1846 13.7562 11.1844 13.1C11.1844 13.1 11.1844 13.1 11.1844 13.0999V8.6C11.1844 8.16418 11.2703 7.73264 11.4371 7.33C11.6038 6.92735 11.8483 6.56151 12.1565 6.25334C12.4646 5.94517 12.8305 5.70072 13.2331 5.53394C13.6358 5.36716 14.0673 5.28132 14.5031 5.28132C14.9389 5.28132 15.3705 5.36716 15.7731 5.53394C16.1758 5.70072 16.5416 5.94517 16.8498 6.25334C17.158 6.56151 17.4024 6.92735 17.5692 7.33C17.736 7.73264 17.8218 8.16418 17.8218 8.6V13.0999C17.8218 13.1 17.8218 13.1 17.8218 13.1C17.8216 13.9801 17.4718 14.824 16.8494 15.4462Z" stroke="url(#paint1_linear_17_18437)" stroke-width="0.562637" stroke-linecap="round"/>
</g>
<defs>
<filter id="filter0_ddii_17_18437" x="0.326476" y="0.4989" width="28.3534" height="31.5033" filterUnits="userSpaceOnUse" color-interpolation-filters="sRGB">
<feFlood flood-opacity="0" result="BackgroundImageFix"/>
<feColorMatrix in="SourceAlpha" type="matrix" values="0 0 0 0 0 0 0 0 0 0 0 0 0 0 0 0 0 0 127 0" result="hardAlpha"/>
<feOffset dy="1.12527"/>
<feGaussianBlur stdDeviation="1.12527"/>
<feComposite in2="hardAlpha" operator="out"/>
<feColorMatrix type="matrix" values="0 0 0 0 0.0134875 0 0 0 0 0.0641196 0 0 0 0 0.147477 0 0 0 0.26 0"/>
<feBlend mode="normal" in2="BackgroundImageFix" result="effect1_dropShadow_17_18437"/>
<feColorMatrix in="SourceAlpha" type="matrix" values="0 0 0 0 0 0 0 0 0 0 0 0 0 0 0 0 0 0 127 0" result="hardAlpha"/>
<feOffset dy="2.25055"/>
<feGaussianBlur stdDeviation="3.37582"/>
<feComposite in2="hardAlpha" operator="out"/>
<feColorMatrix type="matrix" values="0 0 0 0 0.0559254 0 0 0 0 0.163133 0 0 0 0 0.339632 0 0 0 0.1 0"/>
<feBlend mode="normal" in2="effect1_dropShadow_17_18437" result="effect2_dropShadow_17_18437"/>
<feBlend mode="normal" in="SourceGraphic" in2="effect2_dropShadow_17_18437" result="shape"/>
<feColorMatrix in="SourceAlpha" type="matrix" values="0 0 0 0 0 0 0 0 0 0 0 0 0 0 0 0 0 0 127 0" result="hardAlpha"/>
<feOffset dy="1.12527"/>
<feGaussianBlur stdDeviation="0.562637"/>
<feComposite in2="hardAlpha" operator="arithmetic" k2="-1" k3="1"/>
<feColorMatrix type="matrix" values="0 0 0 0 1 0 0 0 0 1 0 0 0 0 1 0 0 0 0.58 0"/>
<feBlend mode="normal" in2="shape" result="effect3_innerShadow_17_18437"/>
<feColorMatrix in="SourceAlpha" type="matrix" values="0 0 0 0 0 0 0 0 0 0 0 0 0 0 0 0 0 0 127 0" result="hardAlpha"/>
<feOffset dy="-0.562637"/>
<feGaussianBlur stdDeviation="0.112527"/>
<feComposite in2="hardAlpha" operator="arithmetic" k2="-1" k3="1"/>
<feColorMatrix type="matrix" values="0 0 0 0 0.151139 0 0 0 0 0.471907 0 0 0 0 1 0 0 0 0.13 0"/>
<feBlend mode="normal" in2="effect3_innerShadow_17_18437" result="effect4_innerShadow_17_18437"/>
</filter>
<linearGradient id="paint0_linear_17_18437" x1="14.5031" y1="5" x2="14.5031" y2="23" gradientUnits="userSpaceOnUse">
<stop stop-color="#E2EDFF"/>
<stop offset="1" stop-color="white"/>
</linearGradient>
<linearGradient id="paint1_linear_17_18437" x1="14.5031" y1="5" x2="14.5031" y2="23" gradientUnits="userSpaceOnUse">
<stop stop-color="#EBF3FC"/>
<stop offset="1" stop-color="#D6E3F8"/>
</linearGradient>
</defs>
</svg>
