<svg width="16" height="17" viewBox="0 0 16 17" fill="none" xmlns="http://www.w3.org/2000/svg">
<path d="M5.98263 2.71532L6.47713 1.44281C6.56106 1.22817 6.70804 1.04398 6.89871 0.914512C7.08937 0.785046 7.31479 0.716374 7.54526 0.717544H8.47162C8.70124 0.717373 8.92557 0.78651 9.11526 0.915912C9.30496 1.04531 9.45117 1.22895 9.53479 1.44281L10.0293 2.71532L11.6776 3.67136L13.0293 3.46697C13.2553 3.43361 13.4861 3.46888 13.6918 3.56821C13.8975 3.66755 14.0687 3.82637 14.1831 4.0241L14.6479 4.82849C14.7624 5.0273 14.8143 5.25595 14.7969 5.48468C14.7796 5.71341 14.6938 5.93161 14.5507 6.11089L13.6985 7.17901V9.09108L14.5507 10.1592C14.6938 10.3385 14.7796 10.5567 14.7969 10.7854C14.8143 11.0141 14.7624 11.2428 14.6479 11.4416L14.1831 12.246C14.0687 12.4437 13.8975 12.6025 13.6918 12.7019C13.4861 12.8012 13.2553 12.8365 13.0293 12.8031L11.6776 12.5987L10.0293 13.5548L9.53479 14.8273C9.45117 15.0411 9.30496 15.2248 9.11526 15.3542C8.92557 15.4836 8.70124 15.5527 8.47162 15.5526H7.54526C7.31563 15.5527 7.0913 15.4836 6.90161 15.3542C6.71192 15.2248 6.5657 15.0411 6.48208 14.8273L5.98758 13.5548L4.33925 12.5987L2.98761 12.8031C2.76161 12.8365 2.5308 12.8012 2.32507 12.7019C2.11935 12.6025 1.94819 12.4437 1.83378 12.246L1.35246 11.4416C1.23804 11.2428 1.18612 11.0141 1.20347 10.7854C1.22081 10.5567 1.30662 10.3385 1.44972 10.1592L2.3019 9.09108V7.17901L1.44972 6.11089C1.30662 5.93161 1.22081 5.71341 1.20347 5.48468C1.18612 5.25595 1.23804 5.0273 1.35246 4.82849L1.81729 4.0241C1.93171 3.82637 2.10287 3.66755 2.30859 3.56821C2.51431 3.46888 2.74513 3.43361 2.97113 3.46697L4.32276 3.67136L5.98263 2.71532ZM5.94802 8.13505C5.94802 8.6815 6.1651 9.20558 6.5515 9.59198C6.9379 9.97839 7.46198 10.1955 8.00844 10.1955C8.55489 10.1955 9.07897 9.97839 9.46537 9.59198C9.85178 9.20558 10.0689 8.6815 10.0689 8.13505C10.0689 7.58859 9.85178 7.06452 9.46537 6.67811C9.07897 6.29171 8.55489 6.07463 8.00844 6.07463C7.46198 6.07463 6.9379 6.29171 6.5515 6.67811C6.1651 7.06452 5.94802 7.58859 5.94802 8.13505Z" stroke="#ACB4C0" stroke-width="1.3" stroke-linecap="round"/>
</svg>
